<?xml version="1.0" encoding="UTF-8" standalone="no"?>
<!-- Created with Inkscape (http://www.inkscape.org/) -->

<svg
   width="100mm"
   height="100mm"
   viewBox="0 0 100 100"
   version="1.1"
   id="svg1"
   xml:space="preserve"
   sodipodi:docname="wifi.svg"
   inkscape:version="1.4.2 (f4327f4, 2025-05-13)"
   xmlns:inkscape="http://www.inkscape.org/namespaces/inkscape"
   xmlns:sodipodi="http://sodipodi.sourceforge.net/DTD/sodipodi-0.dtd"
   xmlns="http://www.w3.org/2000/svg"
   xmlns:svg="http://www.w3.org/2000/svg"><sodipodi:namedview
     id="namedview1"
     pagecolor="#000000"
     bordercolor="#000000"
     borderopacity="0.36862745"
     inkscape:showpageshadow="2"
     inkscape:pageopacity="0.0"
     inkscape:pagecheckerboard="true"
     inkscape:deskcolor="#d1d1d1"
     inkscape:document-units="mm"
     inkscape:zoom="0.71891835"
     inkscape:cx="-16.691743"
     inkscape:cy="269.15435"
     inkscape:window-width="1920"
     inkscape:window-height="1009"
     inkscape:window-x="-8"
     inkscape:window-y="-8"
     inkscape:window-maximized="1"
     inkscape:current-layer="Layer_x0020_1" /><defs
     id="defs1"><style
       type="text/css"
       id="style1">
   <![CDATA[
    .fil0 {fill:#1977F3;fill-rule:nonzero}
    .fil1 {fill:#FEFEFE;fill-rule:nonzero}
   ]]>
  </style><radialGradient
       id="paint0_radial_87_7153"
       cx="0"
       cy="0"
       r="1"
       gradientUnits="userSpaceOnUse"
       gradientTransform="matrix(14.500016,-20.999988,20.999988,14.500016,12,23)"><stop
         stop-color="#B13589"
         id="stop5" /><stop
         offset="0.79309"
         stop-color="#C62F94"
         id="stop6" /><stop
         offset="1"
         stop-color="#8A3AC8"
         id="stop7" /></radialGradient><radialGradient
       id="paint1_radial_87_7153"
       cx="0"
       cy="0"
       r="1"
       gradientUnits="userSpaceOnUse"
       gradientTransform="matrix(9.4999814,-20.499957,20.499957,9.4999814,11,31)"><stop
         stop-color="#E0E8B7"
         id="stop8" /><stop
         offset="0.444662"
         stop-color="#FB8A2E"
         id="stop9" /><stop
         offset="0.71474"
         stop-color="#E2425C"
         id="stop10" /><stop
         offset="1"
         stop-color="#E2425C"
         stop-opacity="0"
         id="stop11" /></radialGradient><radialGradient
       id="paint2_radial_87_7153"
       cx="0"
       cy="0"
       r="1"
       gradientUnits="userSpaceOnUse"
       gradientTransform="matrix(38.500027,-5.5000022,1.1763934,8.2347563,0.500002,3)"><stop
         offset="0.156701"
         stop-color="#406ADC"
         id="stop12" /><stop
         offset="0.467799"
         stop-color="#6A45BE"
         id="stop13" /><stop
         offset="1"
         stop-color="#6A45BE"
         stop-opacity="0"
         id="stop14" /></radialGradient><style
       id="style1-7">.cls-1{fill:#06c755;}.cls-2{fill:#fff;}</style><linearGradient
       id="linear-gradient"
       x1="120"
       y1="240"
       x2="120"
       gradientUnits="userSpaceOnUse"><stop
         offset="0"
         stop-color="#1d93d2"
         id="stop1" /><stop
         offset="1"
         stop-color="#38b0e3"
         id="stop2" /></linearGradient><linearGradient
       id="b"
       x1="85.915"
       x2="86.535"
       y1="32.567"
       y2="137.092"
       gradientUnits="userSpaceOnUse"><stop
         offset="0"
         stop-color="#57d163"
         id="stop1-4" /><stop
         offset="1"
         stop-color="#23b33a"
         id="stop2-2" /></linearGradient><filter
       id="a"
       width="1.1146948"
       height="1.1141825"
       x="-0.057347414"
       y="-0.05709127"
       color-interpolation-filters="sRGB"><feGaussianBlur
         stdDeviation="3.531"
         id="feGaussianBlur2" /></filter></defs><g
     id="Layer_x0020_1"
     inkscape:label="Layer 1"
     inkscape:groupmode="layer"
     style="clip-rule:evenodd;fill-rule:evenodd;image-rendering:optimizeQuality;shape-rendering:geometricPrecision;text-rendering:geometricPrecision"
     transform="matrix(0.01955164,0,0,0.01955164,10.004519,9.9999766)">
  <metadata
   id="CorelCorpID_0Corel-Layer" />
  <rect
   style="clip-rule:evenodd;fill:#ffffff;fill-opacity:1;fill-rule:evenodd;stroke-width:13.5435;image-rendering:optimizeQuality;shape-rendering:geometricPrecision;text-rendering:geometricPrecision"
   id="rect2"
   width="5114.6606"
   height="5114.6606"
   x="-511.69717"
   y="-511.46494" />
 <path
   d="m 2329.188,2843.3432 -144.6424,144.6424 c -79.9936,79.9936 -209.4953,79.9936 -289.2848,0 l -144.6424,-144.6424 c 159.7832,-159.7832 418.7902,-159.7832 578.5696,0 z m 578.5697,-578.5697 -289.2849,289.2849 c -318.9503,-319.1544 -838.1889,-319.1544 -1157.3432,0 l -289.2848,-289.2849 c 479.3457,-479.5498 1256.5671,-479.5498 1735.9129,0 z m 407.1266,-732.2148 c 95.9508,76.7206 104.7495,220.3387 18.0056,307.0826 l -135.6395,135.6433 c -639.3331,-639.1289 -1675.5616,-639.1289 -2314.69044,0 l -135.6396,-135.6433 c -86.7438,-86.7439 -78.153,-230.362 17.7978,-307.0826 743.87474,-594.32272 1806.29144,-594.32272 2550.16614,0 z m 367.4378,1945.412 c 0,113.1363 -91.6535,204.5857 -204.5857,204.5857 H 613.52966 c -112.9322,0 -204.5857,-91.4494 -204.5857,-204.5857 V 613.76388 c 0,-112.9322 91.6535,-204.5895 204.5857,-204.5895 H 3477.7364 c 112.9322,0 204.5857,91.6573 204.5857,204.5895 z m 0,-3477.96761991 H 408.94396 C 182.87546,0.00308009 -0.23113825,183.31378 -0.23113825,409.17438 V 3682.5564 c 0,226.0684 183.10659825,409.1713 409.17509825,409.1713 H 3682.3221 c 225.8644,0 409.1751,-183.1029 409.1751,-409.1713 V 409.17438 c 0,-225.8606 -183.3107,-409.17129991 -409.1751,-409.17129991 z"
   id="wifi_cover-[#1033]"
   style="fill:#000000;fill-rule:evenodd;stroke:none;stroke-width:204.586" /></g></svg>
